<?xml version="1.0" encoding="iso-8859-1"?>
<!-- Generator: Adobe Illustrator 19.0.0, SVG Export Plug-In . SVG Version: 6.00 Build 0)  -->
<svg xmlns="http://www.w3.org/2000/svg" xmlns:xlink="http://www.w3.org/1999/xlink" version="1.1" id="Layer_1" x="0px" y="0px" viewBox="0 0 512 512" style="enable-background:new 0 0 512 512;" xml:space="preserve">
<g>
	<g>
		<g>
			<path d="M506.98,397.459v-56.57c0-1.605-0.387-3.117-1.057-4.463l0.006-0.009c-8.724-17.532-43.153-91.622-51.655-108.803     V112.999c0-5.544-4.496-10.039-10.039-10.039H322.063c13.415-15.648,20.196-30.447,20.196-44.189     c0-26.626-21.663-48.289-48.29-48.289c-15.291,0-29.081,7.156-37.969,18.45c-8.889-11.294-22.68-18.45-37.97-18.45     c-26.626,0-48.289,21.662-48.289,48.289c0,13.742,6.781,28.539,20.196,44.189H67.765c-5.544,0-10.039,4.496-10.039,10.039     v114.615c-8.502,17.181-42.931,91.271-51.655,108.803c-0.023,0.046-0.036,0.088-0.054,0.133     c-0.632,1.314-0.997,2.782-0.997,4.339v56.57C2.022,399.196,0,402.431,0,406.145v45.176c0,5.544,4.496,10.039,10.039,10.039     h10.039v30.118c0,5.544,4.496,10.039,10.039,10.039h65.255c5.544,0,10.039-4.496,10.039-10.039V461.36h301.177v30.118     c0,5.544,4.496,10.039,10.039,10.039h65.255c5.544,0,10.039-4.496,10.039-10.039V461.36h10.039     c5.544,0,10.039-4.496,10.039-10.039v-45.176C512,402.431,509.978,399.195,506.98,397.459z M189.823,58.772     c-0.003-15.555,12.652-28.21,28.207-28.21c14.282,0,26.32,10.679,28.001,24.838c0.6,5.051,4.883,8.855,9.97,8.855     c5.087,0,9.37-3.804,9.97-8.855c1.682-14.159,13.719-24.838,28-24.838c15.556,0,28.211,12.654,28.211,28.21     c0,23.573-38.642,55.979-66.16,73.24C234.476,118.33,189.823,84.666,189.823,58.772z M77.804,123.039h132.458     c0.373,0.321,0.74,0.643,1.118,0.965c19.497,16.598,38.722,27.949,39.531,28.424c1.541,0.905,3.305,1.382,5.092,1.382     s3.543-0.478,5.084-1.382c0.809-0.476,20.034-11.826,39.531-28.424c0.378-0.322,0.745-0.644,1.118-0.965h132.458v96.878h-17.569     v-8.784c0-15.638-12.723-28.361-28.361-28.361H274.322c-6.98,0-13.375,2.54-18.322,6.737c-4.946-4.197-11.341-6.737-18.322-6.737     H123.733c-15.638,0-28.361,12.723-28.361,28.361v8.784H77.804V123.039z M396.549,211.133v18.573c0,4.567-3.716,8.282-8.282,8.282     H274.322c-4.567,0-8.282-3.716-8.282-8.282v-18.573c0-4.567,3.716-8.282,8.282-8.282h113.945     C392.834,202.85,396.549,206.566,396.549,211.133z M245.961,211.133v18.573c0,4.567-3.716,8.282-8.282,8.282H123.733     c-4.567,0-8.282-3.716-8.282-8.282v-18.573c0-4.567,3.716-8.282,8.282-8.282h113.945     C242.245,202.85,245.961,206.566,245.961,211.133z M74.003,239.995h23.31c4.129,10.564,14.411,18.071,26.42,18.071h113.945     c6.98,0,13.375-2.54,18.322-6.737c4.946,4.197,11.341,6.737,18.322,6.737h113.945c12.009,0,22.291-7.506,26.42-18.071h23.31     c7.839,15.977,36.35,77.345,42.858,90.855H31.144C37.653,317.341,66.164,255.973,74.003,239.995z M25.098,350.929h461.804v45.177     H25.098V350.929z M85.333,481.439H40.157V461.36h45.176V481.439z M471.843,481.439h-45.176V461.36h45.176V481.439z      M491.922,441.282H20.078v-25.098h471.843V441.282z"/>
			<path d="M102.819,290.694H102.4c-5.544,0-10.039,4.496-10.039,10.039c0,5.544,4.496,10.039,10.039,10.039h0.419     c5.544,0,10.039-4.496,10.039-10.039C112.858,295.189,108.362,290.694,102.819,290.694z"/>
			<path d="M409.6,290.694H141.721c-5.544,0-10.039,4.496-10.039,10.039c0,5.544,4.496,10.039,10.039,10.039H409.6     c5.544,0,10.039-4.496,10.039-10.039C419.639,295.189,415.144,290.694,409.6,290.694z"/>
		</g>
	</g>
</g>
<g>
</g>
<g>
</g>
<g>
</g>
<g>
</g>
<g>
</g>
<g>
</g>
<g>
</g>
<g>
</g>
<g>
</g>
<g>
</g>
<g>
</g>
<g>
</g>
<g>
</g>
<g>
</g>
<g>
</g>
</svg>
